<svg height="1262" width="720" xmlns="http://www.w3.org/2000/svg">
<rect height="1262" fill="#555" width="720"></rect>
<text fill="#7f7" font-family="Courier New" font-size="12" xml:space="preserve">
<tspan x="10" y="26">3 megabytes installed</tspan>
<tspan x="10" y="42"></tspan>
<tspan x="10" y="58">node_modules</tspan>
<tspan x="10" y="74">└─┬ gulp-bump@2.7.0 </tspan>
<tspan x="10" y="90">  ├─┬ bump-regex@2.7.0 </tspan>
<tspan x="10" y="106">  │ └── xtend@4.0.1 </tspan>
<tspan x="10" y="122">  ├─┬ plugin-error@0.1.2 </tspan>
<tspan x="10" y="138">  │ ├─┬ ansi-cyan@0.1.1 </tspan>
<tspan x="10" y="154">  │ │ └── ansi-wrap@0.1.0 </tspan>
<tspan x="10" y="170">  │ ├── ansi-red@0.1.1 </tspan>
<tspan x="10" y="186">  │ ├─┬ arr-diff@1.1.0 </tspan>
<tspan x="10" y="202">  │ │ ├── arr-flatten@1.0.3 </tspan>
<tspan x="10" y="218">  │ │ └── array-slice@0.2.3 </tspan>
<tspan x="10" y="234">  │ ├── arr-union@2.1.0 </tspan>
<tspan x="10" y="250">  │ └─┬ extend-shallow@1.1.4 </tspan>
<tspan x="10" y="266">  │   └── kind-of@1.1.0 </tspan>
<tspan x="10" y="282">  ├─┬ plugin-log@0.1.0 </tspan>
<tspan x="10" y="298">  │ ├─┬ chalk@1.1.3 </tspan>
<tspan x="10" y="314">  │ │ ├── ansi-styles@2.2.1 </tspan>
<tspan x="10" y="330">  │ │ ├── escape-string-regexp@1.0.5 </tspan>
<tspan x="10" y="346">  │ │ ├─┬ has-ansi@2.0.0 </tspan>
<tspan x="10" y="362">  │ │ │ └── ansi-regex@2.1.1 </tspan>
<tspan x="10" y="378">  │ │ ├── strip-ansi@3.0.1 </tspan>
<tspan x="10" y="394">  │ │ └── supports-color@2.0.0 </tspan>
<tspan x="10" y="410">  │ └─┬ dateformat@1.0.12 </tspan>
<tspan x="10" y="426">  │   ├── get-stdin@4.0.1 </tspan>
<tspan x="10" y="442">  │   └─┬ meow@3.7.0 </tspan>
<tspan x="10" y="458">  │     ├─┬ camelcase-keys@2.1.0 </tspan>
<tspan x="10" y="474">  │     │ └── camelcase@2.1.1 </tspan>
<tspan x="10" y="490">  │     ├── decamelize@1.2.0 </tspan>
<tspan x="10" y="506">  │     ├─┬ loud-rejection@1.6.0 </tspan>
<tspan x="10" y="522">  │     │ ├─┬ currently-unhandled@0.4.1 </tspan>
<tspan x="10" y="538">  │     │ │ └── array-find-index@1.0.2 </tspan>
<tspan x="10" y="554">  │     │ └── signal-exit@3.0.2 </tspan>
<tspan x="10" y="570">  │     ├── map-obj@1.0.1 </tspan>
<tspan x="10" y="586">  │     ├── minimist@1.2.0 </tspan>
<tspan x="10" y="602">  │     ├─┬ normalize-package-data@2.3.8 </tspan>
<tspan x="10" y="618">  │     │ ├── hosted-git-info@2.4.2 </tspan>
<tspan x="10" y="634">  │     │ ├─┬ is-builtin-module@1.0.0 </tspan>
<tspan x="10" y="650">  │     │ │ └── builtin-modules@1.1.1 </tspan>
<tspan x="10" y="666">  │     │ └─┬ validate-npm-package-license@3.0.1 </tspan>
<tspan x="10" y="682">  │     │   ├─┬ spdx-correct@1.0.2 </tspan>
<tspan x="10" y="698">  │     │   │ └── spdx-license-ids@1.2.2 </tspan>
<tspan x="10" y="714">  │     │   └── spdx-expression-parse@1.0.4 </tspan>
<tspan x="10" y="730">  │     ├── object-assign@4.1.1 </tspan>
<tspan x="10" y="746">  │     ├─┬ read-pkg-up@1.0.1 </tspan>
<tspan x="10" y="762">  │     │ ├─┬ find-up@1.1.2 </tspan>
<tspan x="10" y="778">  │     │ │ ├── path-exists@2.1.0 </tspan>
<tspan x="10" y="794">  │     │ │ └─┬ pinkie-promise@2.0.1 </tspan>
<tspan x="10" y="810">  │     │ │   └── pinkie@2.0.4 </tspan>
<tspan x="10" y="826">  │     │ └─┬ read-pkg@1.1.0 </tspan>
<tspan x="10" y="842">  │     │   ├─┬ load-json-file@1.1.0 </tspan>
<tspan x="10" y="858">  │     │   │ ├── graceful-fs@4.1.11 </tspan>
<tspan x="10" y="874">  │     │   │ ├─┬ parse-json@2.2.0 </tspan>
<tspan x="10" y="890">  │     │   │ │ └─┬ error-ex@1.3.1 </tspan>
<tspan x="10" y="906">  │     │   │ │   └── is-arrayish@0.2.1 </tspan>
<tspan x="10" y="922">  │     │   │ ├── pify@2.3.0 </tspan>
<tspan x="10" y="938">  │     │   │ └─┬ strip-bom@2.0.0 </tspan>
<tspan x="10" y="954">  │     │   │   └── is-utf8@0.2.1 </tspan>
<tspan x="10" y="970">  │     │   └── path-type@1.1.0 </tspan>
<tspan x="10" y="986">  │     ├─┬ redent@1.0.0 </tspan>
<tspan x="10" y="1002">  │     │ ├─┬ indent-string@2.1.0 </tspan>
<tspan x="10" y="1018">  │     │ │ └─┬ repeating@2.0.1 </tspan>
<tspan x="10" y="1034">  │     │ │   └─┬ is-finite@1.0.2 </tspan>
<tspan x="10" y="1050">  │     │ │     └── number-is-nan@1.0.1 </tspan>
<tspan x="10" y="1066">  │     │ └── strip-indent@1.0.1 </tspan>
<tspan x="10" y="1082">  │     └── trim-newlines@1.0.0 </tspan>
<tspan x="10" y="1098">  ├── semver@5.3.0 </tspan>
<tspan x="10" y="1114">  └─┬ through2@2.0.3 </tspan>
<tspan x="10" y="1130">    └─┬ readable-stream@2.2.9 </tspan>
<tspan x="10" y="1146">      ├── buffer-shims@1.0.0 </tspan>
<tspan x="10" y="1162">      ├── core-util-is@1.0.2 </tspan>
<tspan x="10" y="1178">      ├── inherits@2.0.3 </tspan>
<tspan x="10" y="1194">      ├── isarray@1.0.0 </tspan>
<tspan x="10" y="1210">      ├── process-nextick-args@1.0.7 </tspan>
<tspan x="10" y="1226">      ├── string_decoder@1.0.0 </tspan>
<tspan x="10" y="1242">      └── util-deprecate@1.0.2</tspan>
</text>
</svg>
